<svg width="24" height="24" viewBox="0 0 24 24" fill="none" xmlns="http://www.w3.org/2000/svg">
<path d="M15.177 5.17684C14.094 6.26084 12.037 5.96184 12.037 5.96184C12.037 5.96184 11.739 3.90584 12.823 2.82184C13.906 1.73884 15.963 2.03784 15.963 2.03784C15.963 2.03784 16.261 4.09284 15.177 5.17684ZM4 14.0598C4 17.3408 6.196 21.1098 8.419 21.9068C9.189 22.1828 9.986 21.8018 10.648 21.3268C11.15 20.9668 11.758 20.6238 12.25 20.6238C12.74 20.6238 13.35 20.9668 13.851 21.3268C14.513 21.8018 15.31 22.1828 16.081 21.9068C17.66 21.3408 19.226 19.2738 20 16.9468C18.5 16.5168 17.406 15.1608 17.406 13.5538C17.406 12.0818 18.325 10.8198 19.632 10.2888C18.79 8.79284 17.414 7.99984 15.859 7.99984C15.055 7.99984 14.315 8.32384 13.719 8.71284C12.765 9.33284 11.734 9.33284 10.781 8.71284C10.184 8.32384 9.445 7.99984 8.641 7.99984C6.077 7.99984 4 10.1548 4 14.0598Z" fill="white" stroke="white" stroke-width="1.5" stroke-linecap="round" stroke-linejoin="round"/>
</svg>
