<svg width="38" height="38" viewBox="0 0 38 38" fill="none" xmlns="http://www.w3.org/2000/svg">
<path fill-rule="evenodd" clip-rule="evenodd" d="M13.8631 13.8637C14.0319 13.695 14.2608 13.6002 14.4994 13.6002C14.7381 13.6002 14.9669 13.695 15.1357 13.8637L18.9994 17.7274L22.8631 13.8637C22.9461 13.7778 23.0454 13.7092 23.1553 13.662C23.2651 13.6149 23.3832 13.59 23.5027 13.589C23.6222 13.5879 23.7407 13.6107 23.8513 13.656C23.9619 13.7012 24.0624 13.7681 24.1469 13.8526C24.2314 13.9371 24.2982 14.0375 24.3435 14.1482C24.3887 14.2588 24.4115 14.3773 24.4104 14.4968C24.4094 14.6163 24.3846 14.7344 24.3374 14.8442C24.2902 14.954 24.2217 15.0533 24.1357 15.1363L20.272 19L24.1357 22.8637C24.2997 23.0335 24.3904 23.2608 24.3883 23.4968C24.3863 23.7327 24.2916 23.9585 24.1248 24.1253C23.9579 24.2922 23.7322 24.3869 23.4962 24.3889C23.2602 24.391 23.0329 24.3003 22.8631 24.1363L18.9994 20.2726L15.1357 24.1363C14.966 24.3003 14.7386 24.391 14.5027 24.3889C14.2667 24.3869 14.0409 24.2922 13.8741 24.1253C13.7072 23.9585 13.6126 23.7327 13.6105 23.4968C13.6085 23.2608 13.6992 23.0335 13.8631 22.8637L17.7268 19L13.8631 15.1363C13.6944 14.9675 13.5996 14.7387 13.5996 14.5C13.5996 14.2614 13.6944 14.0325 13.8631 13.8637Z" fill="#25324B"/>
</svg>
