<svg width="25" height="24" viewBox="0 0 25 24" fill="none" xmlns="http://www.w3.org/2000/svg">
<path d="M16.833 6H13.833C13.2807 6 12.833 6.44772 12.833 7V10H16.833C16.9467 9.99748 17.0546 10.0504 17.1222 10.1419C17.1898 10.2334 17.2088 10.352 17.173 10.46L16.433 12.66C16.3648 12.8619 16.1761 12.9984 15.963 13H12.833V20.5C12.833 20.7761 12.6091 21 12.333 21H9.83301C9.55687 21 9.33301 20.7761 9.33301 20.5V13H7.83301C7.55687 13 7.33301 12.7761 7.33301 12.5V10.5C7.33301 10.2239 7.55687 10 7.83301 10H9.33301V7C9.33301 4.79086 11.1239 3 13.333 3H16.833C17.1091 3 17.333 3.22386 17.333 3.5V5.5C17.333 5.77614 17.1091 6 16.833 6Z" fill="black"/>
</svg>
