<svg width="25" height="24" viewBox="0 0 25 24" fill="none" xmlns="http://www.w3.org/2000/svg">
<path fill-rule="evenodd" clip-rule="evenodd" d="M16.333 3H8.33301C5.57159 3 3.33301 5.23858 3.33301 8V16C3.33301 18.7614 5.57159 21 8.33301 21H16.333C19.0944 21 21.333 18.7614 21.333 16V8C21.333 5.23858 19.0944 3 16.333 3ZM19.583 16C19.5775 17.7926 18.1256 19.2445 16.333 19.25H8.33301C6.54036 19.2445 5.0885 17.7926 5.08301 16V8C5.0885 6.20735 6.54036 4.75549 8.33301 4.75H16.333C18.1256 4.75549 19.5775 6.20735 19.583 8V16ZM17.083 8.25C17.6353 8.25 18.083 7.80228 18.083 7.25C18.083 6.69772 17.6353 6.25 17.083 6.25C16.5307 6.25 16.083 6.69772 16.083 7.25C16.083 7.80228 16.5307 8.25 17.083 8.25ZM12.333 7.5C9.84773 7.5 7.83301 9.51472 7.83301 12C7.83301 14.4853 9.84773 16.5 12.333 16.5C14.8183 16.5 16.833 14.4853 16.833 12C16.8357 10.8057 16.3624 9.65957 15.5179 8.81508C14.6734 7.97059 13.5273 7.49734 12.333 7.5ZM9.58301 12C9.58301 13.5188 10.8142 14.75 12.333 14.75C13.8518 14.75 15.083 13.5188 15.083 12C15.083 10.4812 13.8518 9.25 12.333 9.25C10.8142 9.25 9.58301 10.4812 9.58301 12Z" fill="black"/>
</svg>
