<svg width="25" height="24" viewBox="0 0 25 24" fill="none" xmlns="http://www.w3.org/2000/svg">
<path fill-rule="evenodd" clip-rule="evenodd" d="M5.33301 3H19.333C20.4376 3 21.333 3.89543 21.333 5V19C21.333 20.1046 20.4376 21 19.333 21H5.33301C4.22844 21 3.33301 20.1046 3.33301 19V5C3.33301 3.89543 4.22844 3 5.33301 3ZM8.33301 18C8.60915 18 8.83301 17.7761 8.83301 17.5V10.5C8.83301 10.2239 8.60915 10 8.33301 10H6.83301C6.55687 10 6.33301 10.2239 6.33301 10.5V17.5C6.33301 17.7761 6.55687 18 6.83301 18H8.33301ZM7.58301 9C6.75458 9 6.08301 8.32843 6.08301 7.5C6.08301 6.67157 6.75458 6 7.58301 6C8.41144 6 9.08301 6.67157 9.08301 7.5C9.08301 8.32843 8.41144 9 7.58301 9ZM17.833 18C18.1091 18 18.333 17.7761 18.333 17.5V12.9C18.3655 11.3108 17.1906 9.95452 15.613 9.76C14.51 9.65925 13.4413 10.1744 12.833 11.1V10.5C12.833 10.2239 12.6091 10 12.333 10H10.833C10.5569 10 10.333 10.2239 10.333 10.5V17.5C10.333 17.7761 10.5569 18 10.833 18H12.333C12.6091 18 12.833 17.7761 12.833 17.5V13.75C12.833 12.9216 13.5046 12.25 14.333 12.25C15.1614 12.25 15.833 12.9216 15.833 13.75V17.5C15.833 17.7761 16.0569 18 16.333 18H17.833Z" fill="black"/>
</svg>
