<svg width="26" height="20" viewBox="0 0 26 20" fill="none" xmlns="http://www.w3.org/2000/svg">
<path fill-rule="evenodd" clip-rule="evenodd" d="M25.9173 9.99984C25.9173 9.30948 25.3577 8.74984 24.6673 8.74984H1.33398C0.643628 8.74984 0.0839844 9.30948 0.0839844 9.99984C0.0839844 10.6902 0.643628 11.2498 1.33398 11.2498H24.6673C25.3577 11.2498 25.9173 10.6902 25.9173 9.99984Z" fill="#2A2A2A"/>
<path fill-rule="evenodd" clip-rule="evenodd" d="M25.9173 1.6665C25.9173 0.976148 25.3577 0.416504 24.6673 0.416504H1.33398C0.643628 0.416504 0.0839844 0.976148 0.0839844 1.6665C0.0839844 2.35686 0.643628 2.9165 1.33398 2.9165H24.6673C25.3577 2.9165 25.9173 2.35686 25.9173 1.6665Z" fill="#2A2A2A"/>
<path fill-rule="evenodd" clip-rule="evenodd" d="M25.9173 18.3332C25.9173 17.6428 25.3577 17.0832 24.6673 17.0832H1.33398C0.643628 17.0832 0.0839844 17.6428 0.0839844 18.3332C0.0839844 19.0235 0.643628 19.5832 1.33398 19.5832H24.6673C25.3577 19.5832 25.9173 19.0235 25.9173 18.3332Z" fill="#2A2A2A"/>
</svg>
